<svg width="380" height="116" xmlns="http://www.w3.org/2000/svg">
<title>Lab Icon</title>
<path stroke-width="2.6" stroke="#061106" fill="none" 
d="m 51.8,4.2 c 1.225222,1.0951257 0.737416,4.005917 0,4.6583021 C 51.062584,9.5106872 50.517754,9.6266235 48.399529,9.7 V 40 l 25.534927,65.72495 c 0,0 0.720504,2.02783 0.411544,3.70255 -1.407417,5.24471 -4.401774,4.00528 -35.606,4.1195 -31.1975785,0.11419 -34.0416326,0.16335 -35.4937569,-4.1125 -0.7032297,-2.07069 0.025515,-3.9629 0.025515,-3.9629 L 28.899529,40 V 9.7 c 0,0 -2.604163,-0.1620343 -3.399086,-0.84 C 24.70552,8.1820343 24.386918,5.3010866 25.5,4.2 26.613082,3.0989134 27.090824,3.4217453 38.611,3.398 50.131176,3.3742547 50.574778,3.1048743 51.8,4.2 Z"/>
<path fill="#2ca05a"
d="m 24.765479,60.855532 27.44342,-0.01853 16.773984,43.071948 c 0,0 0.74719,1.73876 -0.329105,3.90643 -1.076295,2.16767 -3.032173,1.53182 -28.540586,1.54723 -25.508414,0.0154 -30.372487,0.73747 -31.4260609,-1.88549 -1.0535739,-2.62296 -0.1663201,-3.7863 -0.1663201,-3.7863 z"/>
<g fill="white" stroke-width="0.5" stroke="#848481">
<circle cx="30.334663" cy="83.933632" r="4.7297297"/>
<circle cx="20.873127" cy="100.17941" r="3.7837839"/>
<circle cx="43.828098" cy="77.053703" r="3.7837837"/>
<circle cx="52.630161" cy="98.645638" r="4.2567568"/>
</g>
<g fill="#5a7dff" stroke="#5a7dff" stroke-width="2.5"> 
<path d="m 112.74302,31.382069 h 5.25639 V 98.79607 l 31.59459,3.75e-4 v 5.047115 l -36.85098,-3.8e-4 z"/>
<path d="m 200.22053,61.343177 v 42.500003 h -5.39062 v -7.30469 c -2.29167,2.786459 -4.86979,4.88281 -7.73438,6.28906 -2.83853,1.40625 -5.95052,2.10938 -9.33593,2.10938 -6.01563,0 -11.15886,-2.17448 -15.42969,-6.52344 -4.24479,-4.375 -6.36718,-9.6875 -6.36718,-15.9375 0,-6.119791 2.14843,-11.354166 6.44531,-15.703125 4.29687,-4.348959 9.46614,-6.523437 15.50781,-6.523437 3.48958,0 6.64063,0.742188 9.45313,2.226563 2.83854,1.484375 5.32551,3.710936 7.46093,6.679686 v -7.812499 z m -21.875,4.179688 c -3.04687,0 -5.85937,0.75521 -8.4375,2.265625 -2.57812,1.484375 -4.63541,3.580731 -6.17187,6.289062 -1.51042,2.708334 -2.26563,5.572919 -2.26563,8.59375 0,2.994794 0.76823,5.859375 2.30469,8.59375 1.53646,2.734375 3.59375,4.869794 6.17188,6.40625 2.60416,1.510419 5.39062,2.265625 8.35937,2.265625 2.99479,0 5.83333,-0.755206 8.51563,-2.265625 2.68229,-1.510416 4.73958,-3.554687 6.17187,-6.132812 1.45834,-2.578125 2.1875,-5.481769 2.1875,-8.710938 0,-4.921875 -1.6276,-9.036456 -4.88282,-12.34375 -3.22916,-3.30729 -7.21354,-4.960937 -11.95312,-4.960937 z"/>
<path d="M 217.91545,103.84318 V 29.937071 h 5.42969 v 38.710794 c 2.29168,-2.8125 4.85678,-4.908854 7.69531,-6.289063 2.83854,-1.40625 5.95053,-2.109375 9.33594,-2.109375 6.01563,0 11.14583,2.1875 15.39063,6.5625 4.27082,4.348959 6.40625,9.635419 6.40625,15.859375 0,6.145834 -2.14844,11.393231 -6.44532,15.742188 -4.29687,4.34896 -9.46614,6.52344 -15.50781,6.52344 -3.46354,0 -6.60156,-0.74219 -9.41406,-2.22656 -2.8125,-1.48438 -5.29948,-3.710943 -7.46094,-6.679693 v 7.812503 z m 21.875,-4.17969 c 3.04688,0 5.85938,-0.742188 8.4375,-2.226563 2.57813,-1.510415 4.6224,-3.61979 6.13283,-6.328125 1.53646,-2.70833 2.30467,-5.572915 2.30467,-8.59375 0,-3.02083 -0.76822,-5.898437 -2.30467,-8.632812 -1.53646,-2.734375 -3.60678,-4.856769 -6.21093,-6.367188 -2.57813,-1.536457 -5.33854,-2.304687 -8.28125,-2.304687 -2.99479,0 -5.84636,0.76823 -8.55469,2.304687 -2.68229,1.510419 -4.75261,3.554688 -6.21094,6.132813 -1.43229,2.578125 -2.14844,5.481772 -2.14844,8.710937 0,4.921875 1.61458,9.03646 4.84375,12.34375 3.25521,3.307295 7.25261,4.960938 11.99217,4.960938 z"/>
</g>
</svg>
