<svg width="380" height="116" xmlns="http://www.w3.org/2000/svg">
<title>Lab Icon</title>
<path stroke-width="2.6" stroke="#061106" fill="none" 
d="m 51.8,4.2 c 1.225222,1.0951257 0.737416,4.005917 0,4.6583021 C 51.062584,9.5106872 50.517754,9.6266235 48.399529,9.7 V 40 l 25.534927,65.72495 c 0,0 0.720504,2.02783 0.411544,3.70255 -1.407417,5.24471 -4.401774,4.00528 -35.606,4.1195 -31.1975785,0.11419 -34.0416326,0.16335 -35.4937569,-4.1125 -0.7032297,-2.07069 0.025515,-3.9629 0.025515,-3.9629 L 28.899529,40 V 9.7 c 0,0 -2.604163,-0.1620343 -3.399086,-0.84 C 24.70552,8.1820343 24.386918,5.3010866 25.5,4.2 26.613082,3.0989134 27.090824,3.4217453 38.611,3.398 50.131176,3.3742547 50.574778,3.1048743 51.8,4.2 Z"/>
<path fill="#2ca05a"
d="m 24.765479,60.855532 27.44342,-0.01853 16.773984,43.071948 c 0,0 0.74719,1.73876 -0.329105,3.90643 -1.076295,2.16767 -3.032173,1.53182 -28.540586,1.54723 -25.508414,0.0154 -30.372487,0.73747 -31.4260609,-1.88549 -1.0535739,-2.62296 -0.1663201,-3.7863 -0.1663201,-3.7863 z"/>
<g fill="white" stroke-width="0.5" stroke="#848481">
<circle cx="30.334663" cy="83.933632" r="4.7297297"/>
<circle cx="20.873127" cy="100.17941" r="3.7837839"/>
<circle cx="43.828098" cy="77.053703" r="3.7837837"/>
<circle cx="52.630161" cy="98.645638" r="4.2567568"/>
</g>
<g fill="#0000ff"> 
<path d="m 110.37505,4.9738325 9.6259,3.35e-4 V 103.06992 l 47.85405,-3.3e-4 v 9.05283 h -57.47995 z"/>
<path d="m 254.11287,33.691078 v 77.031252 h -9.77051 V 97.482582 q -6.23047,7.575688 -14.01855,11.398928 -7.71729,3.82324 -16.92139,3.82324 -16.35498,0 -27.96631,-11.82373 -11.54053,-11.894532 -11.54053,-28.886719 0,-16.638184 11.68213,-28.461914 11.68213,-11.823731 28.10791,-11.823731 9.48731,0 17.13379,4.035645 7.71729,4.035644 13.52295,12.106933 V 33.691078 Z m -39.64844,7.575684 q -8.28369,0 -15.29297,4.106445 -7.00927,4.035645 -11.18652,11.398926 -4.10645,7.363281 -4.10645,15.576172 0,8.14209 4.17725,15.576172 4.17725,7.434082 11.18652,11.611328 7.08008,4.106445 15.15137,4.106445 8.14209,0 15.43457,-4.106445 7.29248,-4.106446 11.18652,-11.115723 3.96485,-7.009277 3.96485,-15.788574 0,-13.381348 -8.8501,-22.373047 -8.7793,-8.991699 -21.66504,-8.991699 z"/>
<path d="M 277.12312,110.72233 V 3.9547501 h 9.84131 V 46.930824 q 6.23047,-7.646484 13.94776,-11.398926 7.71728,-3.823242 16.92138,-3.823242 16.35498,0 27.89551,11.894532 11.61133,11.82373 11.61133,28.745117 0,16.708984 -11.68213,28.532715 -11.68213,11.82373 -28.10791,11.82373 -9.4165,0 -17.06299,-4.03564 -7.64648,-4.03565 -13.52295,-12.106938 v 14.160158 z m 39.64844,-7.57569 q 8.28369,0 15.29297,-4.03564 7.00928,-4.106445 11.11572,-11.469727 4.17725,-7.363281 4.17725,-15.576171 0,-8.212891 -4.17725,-15.646973 -4.17724,-7.434082 -11.25732,-11.540527 -7.00928,-4.177246 -15.00977,-4.177246 -8.14209,0 -15.50537,4.177246 -7.29248,4.106445 -11.25732,11.115722 -3.89405,7.009278 -3.89405,15.788574 0,13.381348 8.7793,22.373047 8.8501,8.991695 21.73584,8.991695 z"/>
</g>
</svg>
